<mxfile host="app.diagrams.net" modified="2023-06-21T01:44:02.969Z" agent="Mozilla/5.0 (Macintosh; Intel Mac OS X 10_15_7) AppleWebKit/537.36 (KHTML, like Gecko) Chrome/114.0.0.0 Safari/537.36" version="21.5.0" etag="HU64n6lTqdCnAFPtIpK6" type="device">
  <diagram id="I93AlcT0fcJo6NwynFfM" name="Page-1">
    <mxGraphModel dx="1242" dy="771" grid="1" gridSize="10" guides="1" tooltips="1" connect="1" arrows="1" fold="1" page="0" pageScale="1" pageWidth="827" pageHeight="1169" math="0" shadow="0">
      <root>
        <mxCell id="0" />
        <mxCell id="1" parent="0" />
        <mxCell id="GcN3jq68hUhbco2Lpi96-51" value="Gym Management Service" style="text;html=1;strokeColor=none;fillColor=none;align=center;verticalAlign=middle;whiteSpace=wrap;rounded=0;movable=0;resizable=0;rotatable=0;deletable=0;editable=0;locked=1;connectable=0;" vertex="1" parent="1">
          <mxGeometry x="560" y="60" width="60" height="30" as="geometry" />
        </mxCell>
        <mxCell id="GcN3jq68hUhbco2Lpi96-50" value="" style="rounded=1;whiteSpace=wrap;html=1;fillColor=none;movable=0;resizable=0;rotatable=0;deletable=0;editable=0;locked=1;connectable=0;" vertex="1" parent="1">
          <mxGeometry x="170" y="50" width="520" height="610" as="geometry" />
        </mxCell>
        <mxCell id="GcN3jq68hUhbco2Lpi96-17" style="rounded=0;orthogonalLoop=1;jettySize=auto;html=1;exitX=0.75;exitY=0.1;exitDx=0;exitDy=0;exitPerimeter=0;entryX=0;entryY=0.5;entryDx=0;entryDy=0;endArrow=none;endFill=0;" edge="1" parent="1" source="GcN3jq68hUhbco2Lpi96-1" target="GcN3jq68hUhbco2Lpi96-13">
          <mxGeometry relative="1" as="geometry" />
        </mxCell>
        <mxCell id="GcN3jq68hUhbco2Lpi96-18" style="rounded=0;orthogonalLoop=1;jettySize=auto;html=1;exitX=1;exitY=0.3333333333333333;exitDx=0;exitDy=0;exitPerimeter=0;entryX=0;entryY=0.5;entryDx=0;entryDy=0;endArrow=none;endFill=0;" edge="1" parent="1" source="GcN3jq68hUhbco2Lpi96-1" target="GcN3jq68hUhbco2Lpi96-14">
          <mxGeometry relative="1" as="geometry" />
        </mxCell>
        <mxCell id="GcN3jq68hUhbco2Lpi96-21" style="rounded=0;orthogonalLoop=1;jettySize=auto;html=1;exitX=1;exitY=1;exitDx=0;exitDy=0;exitPerimeter=0;entryX=0;entryY=0.5;entryDx=0;entryDy=0;endArrow=none;endFill=0;" edge="1" parent="1" source="GcN3jq68hUhbco2Lpi96-1" target="GcN3jq68hUhbco2Lpi96-15">
          <mxGeometry relative="1" as="geometry" />
        </mxCell>
        <mxCell id="GcN3jq68hUhbco2Lpi96-1" value="Customer" style="shape=umlActor;verticalLabelPosition=bottom;verticalAlign=top;html=1;outlineConnect=0;" vertex="1" parent="1">
          <mxGeometry x="40" y="270" width="30" height="60" as="geometry" />
        </mxCell>
        <mxCell id="GcN3jq68hUhbco2Lpi96-22" style="rounded=0;orthogonalLoop=1;jettySize=auto;html=1;exitX=0;exitY=0.3333333333333333;exitDx=0;exitDy=0;exitPerimeter=0;entryX=1;entryY=0.5;entryDx=0;entryDy=0;endArrow=none;endFill=0;" edge="1" parent="1" source="GcN3jq68hUhbco2Lpi96-2" target="GcN3jq68hUhbco2Lpi96-12">
          <mxGeometry relative="1" as="geometry" />
        </mxCell>
        <mxCell id="GcN3jq68hUhbco2Lpi96-2" value="Schedular" style="shape=umlActor;verticalLabelPosition=bottom;verticalAlign=top;html=1;outlineConnect=0;" vertex="1" parent="1">
          <mxGeometry x="750" y="443" width="30" height="60" as="geometry" />
        </mxCell>
        <mxCell id="GcN3jq68hUhbco2Lpi96-3" value="Auth Credentials DB" style="shape=umlActor;verticalLabelPosition=bottom;verticalAlign=top;html=1;outlineConnect=0;" vertex="1" parent="1">
          <mxGeometry x="750" y="245" width="30" height="60" as="geometry" />
        </mxCell>
        <mxCell id="GcN3jq68hUhbco2Lpi96-29" style="rounded=0;orthogonalLoop=1;jettySize=auto;html=1;exitX=0;exitY=0;exitDx=0;exitDy=0;entryX=1;entryY=0.5;entryDx=0;entryDy=0;dashed=1;" edge="1" parent="1" source="GcN3jq68hUhbco2Lpi96-11" target="GcN3jq68hUhbco2Lpi96-14">
          <mxGeometry relative="1" as="geometry" />
        </mxCell>
        <mxCell id="GcN3jq68hUhbco2Lpi96-46" style="rounded=0;orthogonalLoop=1;jettySize=auto;html=1;exitX=1;exitY=0.5;exitDx=0;exitDy=0;entryX=0;entryY=1;entryDx=0;entryDy=0;entryPerimeter=0;endArrow=none;endFill=0;" edge="1" parent="1" source="GcN3jq68hUhbco2Lpi96-11" target="GcN3jq68hUhbco2Lpi96-3">
          <mxGeometry relative="1" as="geometry" />
        </mxCell>
        <mxCell id="GcN3jq68hUhbco2Lpi96-11" value="Verify Credentials" style="ellipse;whiteSpace=wrap;html=1;" vertex="1" parent="1">
          <mxGeometry x="540" y="270" width="140" height="70" as="geometry" />
        </mxCell>
        <mxCell id="GcN3jq68hUhbco2Lpi96-12" value="Is Slot Available" style="ellipse;whiteSpace=wrap;html=1;" vertex="1" parent="1">
          <mxGeometry x="520" y="430" width="140" height="70" as="geometry" />
        </mxCell>
        <mxCell id="GcN3jq68hUhbco2Lpi96-44" style="rounded=0;orthogonalLoop=1;jettySize=auto;html=1;exitX=1;exitY=0.5;exitDx=0;exitDy=0;entryX=0.5;entryY=0;entryDx=0;entryDy=0;entryPerimeter=0;endArrow=none;endFill=0;" edge="1" parent="1" source="GcN3jq68hUhbco2Lpi96-13" target="GcN3jq68hUhbco2Lpi96-3">
          <mxGeometry relative="1" as="geometry" />
        </mxCell>
        <mxCell id="GcN3jq68hUhbco2Lpi96-13" value="Registration" style="ellipse;whiteSpace=wrap;html=1;" vertex="1" parent="1">
          <mxGeometry x="230" y="110" width="140" height="70" as="geometry" />
        </mxCell>
        <mxCell id="GcN3jq68hUhbco2Lpi96-43" style="rounded=0;orthogonalLoop=1;jettySize=auto;html=1;exitX=1;exitY=0;exitDx=0;exitDy=0;entryX=0;entryY=1;entryDx=0;entryDy=0;entryPerimeter=0;endArrow=none;endFill=0;" edge="1" parent="1" source="GcN3jq68hUhbco2Lpi96-14" target="GcN3jq68hUhbco2Lpi96-32">
          <mxGeometry relative="1" as="geometry" />
        </mxCell>
        <mxCell id="GcN3jq68hUhbco2Lpi96-14" value="View Gyms" style="ellipse;whiteSpace=wrap;html=1;" vertex="1" parent="1">
          <mxGeometry x="250" y="240" width="140" height="70" as="geometry" />
        </mxCell>
        <mxCell id="GcN3jq68hUhbco2Lpi96-26" style="rounded=0;orthogonalLoop=1;jettySize=auto;html=1;exitX=1;exitY=0.5;exitDx=0;exitDy=0;entryX=0;entryY=0.5;entryDx=0;entryDy=0;dashed=1;" edge="1" parent="1" source="GcN3jq68hUhbco2Lpi96-15" target="GcN3jq68hUhbco2Lpi96-11">
          <mxGeometry relative="1" as="geometry" />
        </mxCell>
        <mxCell id="GcN3jq68hUhbco2Lpi96-15" value="Boook Slot" style="ellipse;whiteSpace=wrap;html=1;" vertex="1" parent="1">
          <mxGeometry x="250" y="360" width="140" height="70" as="geometry" />
        </mxCell>
        <mxCell id="GcN3jq68hUhbco2Lpi96-27" value="&amp;lt;&amp;lt;include&amp;gt;&amp;gt;" style="text;align=center;fontStyle=1;verticalAlign=middle;spacingLeft=3;spacingRight=3;strokeColor=none;rotatable=0;points=[[0,0.5],[1,0.5]];portConstraint=eastwest;html=1;direction=west;" vertex="1" parent="1">
          <mxGeometry x="420" y="350" width="80" height="26" as="geometry" />
        </mxCell>
        <mxCell id="GcN3jq68hUhbco2Lpi96-28" value="&amp;lt;&amp;lt;extend&amp;gt;&amp;gt;" style="text;align=center;fontStyle=1;verticalAlign=middle;spacingLeft=3;spacingRight=3;strokeColor=none;rotatable=0;points=[[0,0.5],[1,0.5]];portConstraint=eastwest;html=1;" vertex="1" parent="1">
          <mxGeometry x="430" y="270" width="80" height="26" as="geometry" />
        </mxCell>
        <mxCell id="GcN3jq68hUhbco2Lpi96-32" value="Gym Catalogue" style="shape=umlActor;verticalLabelPosition=bottom;verticalAlign=top;html=1;outlineConnect=0;" vertex="1" parent="1">
          <mxGeometry x="740" y="90" width="30" height="60" as="geometry" />
        </mxCell>
        <mxCell id="GcN3jq68hUhbco2Lpi96-42" value="" style="rounded=0;orthogonalLoop=1;jettySize=auto;html=1;exitX=0.5;exitY=1;exitDx=0;exitDy=0;entryX=0;entryY=0.5;entryDx=0;entryDy=0;dashed=1;" edge="1" parent="1" source="GcN3jq68hUhbco2Lpi96-15" target="GcN3jq68hUhbco2Lpi96-12">
          <mxGeometry relative="1" as="geometry">
            <mxPoint x="369" y="370" as="sourcePoint" />
            <mxPoint x="510" y="456" as="targetPoint" />
          </mxGeometry>
        </mxCell>
        <mxCell id="GcN3jq68hUhbco2Lpi96-45" value="&amp;lt;&amp;lt;include&amp;gt;&amp;gt;" style="text;align=center;fontStyle=1;verticalAlign=middle;spacingLeft=3;spacingRight=3;strokeColor=none;rotatable=0;points=[[0,0.5],[1,0.5]];portConstraint=eastwest;html=1;direction=west;" vertex="1" parent="1">
          <mxGeometry x="390" y="460" width="80" height="26" as="geometry" />
        </mxCell>
      </root>
    </mxGraphModel>
  </diagram>
</mxfile>
